<?xml version="1.0" standalone="no"?>
<!DOCTYPE svg PUBLIC "-//W3C//DTD SVG 20010904//EN"
 "http://www.w3.org/TR/2001/REC-SVG-20010904/DTD/svg10.dtd">
<svg version="1.0" xmlns="http://www.w3.org/2000/svg"
 width="512.000000pt" height="512.000000pt" viewBox="0 0 512.000000 512.000000"
 preserveAspectRatio="xMidYMid meet">

<g transform="translate(0.000000,512.000000) scale(0.100000,-0.100000)"
fill="#000000" stroke="none">
<path d="M78 5099 c-23 -12 -46 -35 -58 -59 -19 -37 -20 -58 -20 -370 0 -312
1 -333 20 -370 23 -45 80 -80 130 -80 50 0 107 35 130 80 18 36 20 58 20 280
l0 240 240 0 c222 0 244 2 280 20 45 23 80 80 80 130 0 50 -35 107 -80 130
-37 19 -58 20 -372 20 -312 -1 -335 -2 -370 -21z"/>
<path d="M4298 5099 c-43 -22 -78 -81 -78 -129 0 -50 35 -107 80 -130 36 -18
58 -20 280 -20 l240 0 0 -240 c0 -222 2 -244 20 -280 23 -45 80 -80 130 -80
50 0 107 35 130 80 19 37 20 58 20 370 0 312 -1 333 -20 370 -13 26 -34 47
-60 60 -37 19 -58 20 -372 20 -312 -1 -335 -2 -370 -21z"/>
<path d="M2320 3895 c-151 -17 -217 -29 -385 -72 -607 -154 -1234 -524 -1788
-1053 -195 -186 -196 -233 -7 -413 677 -650 1460 -1055 2190 -1132 171 -19
289 -19 462 0 673 71 1384 416 2028 984 149 132 261 245 281 283 42 81 19 137
-108 258 -845 815 -1832 1238 -2673 1145z m480 -313 c198 -52 365 -146 501
-281 135 -135 226 -297 282 -501 29 -109 29 -371 0 -480 -56 -204 -147 -366
-282 -501 -135 -135 -297 -226 -501 -282 -110 -30 -371 -29 -483 1 -399 109
-670 381 -779 782 -32 115 -31 362 1 484 109 420 448 730 866 796 93 14 308 4
395 -18z m-1380 -299 c-139 -231 -210 -477 -210 -723 0 -236 77 -511 194 -694
20 -31 36 -58 36 -61 0 -18 -258 126 -435 242 -205 135 -508 375 -609 482
l-30 31 30 31 c95 101 389 335 584 466 142 94 434 263 457 263 3 0 -5 -17 -17
-37z m2429 -49 c293 -163 605 -389 831 -602 l75 -70 -30 -32 c-92 -99 -395
-340 -585 -467 -173 -114 -446 -270 -456 -260 -3 3 11 31 32 62 74 116 147
311 176 470 17 92 16 360 -1 455 -27 153 -101 348 -175 464 -20 31 -36 59 -36
62 0 10 28 -3 169 -82z"/>
<path d="M2420 3194 c-180 -38 -357 -177 -439 -344 -94 -193 -94 -387 0 -580
59 -119 170 -230 289 -289 193 -94 387 -94 580 0 169 83 307 260 345 444 31
146 12 285 -56 425 -83 169 -260 307 -444 345 -86 18 -189 18 -275 -1z m294
-323 c75 -37 128 -91 165 -170 22 -47 26 -70 26 -141 0 -76 -4 -93 -33 -152
-38 -77 -92 -130 -171 -167 -47 -22 -70 -26 -141 -26 -71 0 -94 4 -140 26 -82
39 -135 90 -172 167 -29 59 -33 76 -33 152 0 71 4 94 26 140 87 186 293 260
473 171z"/>
<path d="M78 879 c-23 -12 -46 -35 -58 -59 -19 -37 -20 -58 -20 -370 0 -312 1
-333 20 -370 13 -26 34 -47 60 -60 37 -19 58 -20 370 -20 312 0 333 1 370 20
45 23 80 80 80 130 0 50 -35 107 -80 130 -36 18 -58 20 -280 20 l-240 0 0 240
c0 222 -2 244 -20 280 -37 73 -127 99 -202 59z"/>
<path d="M4898 879 c-23 -12 -46 -35 -58 -59 -18 -36 -20 -58 -20 -280 l0
-240 -240 0 c-222 0 -244 -2 -280 -20 -45 -23 -80 -80 -80 -130 0 -50 35 -107
80 -130 37 -19 58 -20 370 -20 312 0 333 1 370 20 26 13 47 34 60 60 19 37 20
58 20 370 0 312 -1 333 -20 370 -37 73 -127 99 -202 59z"/>
</g>
</svg>
