<svg id="svg1304" height="512" viewBox="0 0 6.3499999 6.3500002" width="512" xmlns="http://www.w3.org/2000/svg" xmlns:svg="http://www.w3.org/2000/svg"><g id="layer1" transform="translate(0 -290.65)"><path id="path1319" d="m.79117878 291.17604a.26460982.26460982 0 0 0 -.1855185.45475l2.19521522 2.19418-2.19521522 2.1947a.26460982.26460982 0 1 0 .375171.3731l2.19418152-2.19418 2.1946981 2.19418a.26460982.26460982 0 1 0 .3731038-.3731l-2.1941814-2.1947 2.1941814-2.19418a.26460982.26460982 0 0 0 -.1917195-.45475.26460982.26460982 0 0 0 -.1813843.0801l-2.1946981 2.19469-2.19418152-2.19469a.26460982.26460982 0 0 0 -.1896525-.0801z" font-variant-ligatures="normal" font-variant-position="normal" font-variant-caps="normal" font-variant-numeric="normal" font-variant-alternates="normal" font-feature-settings="normal" text-indent="0" text-align="start" text-decoration-line="none" text-decoration-style="solid" text-decoration-color="rgb(0,0,0)" text-transform="none" text-orientation="mixed" white-space="normal" shape-padding="0" isolation="auto" mix-blend-mode="normal" solid-color="rgb(0,0,0)" solid-opacity="1" vector-effect="none"/></g></svg>